# xmcd
#
# Track frame offsets:
#	150
#	48130
#	72677
#	124355
#	150137
#	210157
#	233935
#	255295
#	281062
#
# Disc length: 4024 seconds
#
# Revision: 0
# Processed by: cddbd v1.4PL0 Copyright (c) Steve Scherf et al.
# Submitted via: dBpowerAMP V4.0
#
DISCID=750fb609
DTITLE=The Grace Thrillers - Traditional Gospel Classics
DYEAR=1999
DGENRE=Gospel
TTITLE0=Grace Thrillers- Holy Ghost Power(Medlley)
TTITLE1=Grace Thrillers- Bring Me Down
TTITLE2=Grace Thrillers-Home Coming
TTITLE3=Grace Thrillers- There Was Ninety and Nine
TTITLE4=Grace Thrillers- Old Time Religion(Medley)
TTITLE5=Grace Thrillers- I would Know Him
TTITLE6=Grace Thrillers-Until The STorm Passes By
TTITLE7=Grace Thrillers- Power In The Blood
TTITLE8=Grace Thrillers- Known Only To Him
EXTD=
EXTT0=
EXTT1=
EXTT2=
EXTT3=
EXTT4=
EXTT5=
EXTT6=
EXTT7=
EXTT8=
PLAYORDER=
